<svg width="344" height="128" viewBox="0 0 344 128" fill="none" xmlns="http://www.w3.org/2000/svg">
<path d="M180.307 1.87693C190.05 0.242805 199.978 -0.413793 209.843 0.264939C227.515 1.61134 244.686 6.44361 261.49 11.855C275.628 16.1672 289.992 20.0219 304.713 21.6929C313.696 22.6483 322.851 22.7258 331.745 20.9773C335.796 20.1178 339.811 18.9633 343.497 17.0525C339.833 21.479 334.227 23.6923 328.772 24.9759C314.338 28.388 299.295 27.156 284.825 24.6587C276.02 23.1352 267.37 20.8445 258.75 18.5317C243.001 14.0646 227.32 8.83023 210.947 7.18505C192.72 5.18574 174.065 6.88995 156.57 12.4083C146.413 15.4626 136.803 20.0293 127.474 25.0165C131.234 21.7667 135.455 19.0555 139.765 16.5803C152.293 9.3983 166.032 4.23035 180.307 1.87693Z" fill="#004EEB"/>
<path d="M164.079 15.3446C181.334 11.4603 199.258 10.2688 216.834 12.4378C224.926 13.5666 232.956 15.2819 240.726 17.8345C238.769 17.816 236.859 17.3623 234.928 17.1299C217.244 14.3523 199.099 14.0719 181.426 17.0783C167.598 19.4317 153.985 23.8767 141.996 31.2468C157.744 32.8145 173.323 36.0164 189.164 36.7099C198.534 37.2374 208.003 36.8869 217.211 34.9798C223.586 33.6851 229.72 31.4017 235.611 28.6905C230.71 33.3642 224.291 36.0385 217.938 38.1153C199.841 43.7923 180.584 43.2722 161.874 42.0327C142.188 40.6605 122.499 38.9047 102.747 38.8752C84.0107 38.9121 65.112 40.8671 47.1845 46.5367C38.9484 49.2074 30.8969 52.5125 23.3219 56.7177C18.864 59.3589 14.4468 62.225 10.9197 66.0687C8.86247 68.3816 7.21154 71.2404 7.03796 74.3906C6.91238 77.692 7.91697 81.0931 10.0517 83.6494C11.6731 85.479 13.7783 86.8991 16.1125 87.648C12.2788 87.7365 8.39341 86.5635 5.2947 84.2949C2.40652 82.1997 0.522915 78.7507 0.504448 75.1652C0.367795 69.5694 3.39633 64.4088 7.28172 60.5872C12.8106 54.9213 19.6285 50.7493 26.5425 47.0015C35.8201 42.1397 45.6481 38.3071 55.79 35.6733C75.2908 30.6123 95.5783 29.0004 115.677 29.7086C119.891 29.8746 124.102 30.1254 128.316 30.3615C133.801 26.3887 139.987 23.5078 146.225 20.933C152.031 18.6534 158.033 16.8865 164.079 15.3446Z" fill="#00246B"/>
<path d="M315.454 31.9551C321.485 30.5644 327.413 28.6573 333.544 27.7204C335.667 27.429 338.312 27.2704 339.852 29.0594C341.17 30.8669 340.904 33.2757 340.624 35.3598C339.449 41.0774 336.982 46.4962 333.695 51.3063C330.308 56.0575 325.655 59.9085 320.288 62.2287C319.043 62.7378 317.814 63.3464 316.466 63.5272C321.422 60.6057 325.54 56.1128 327.582 50.7014C328.399 48.359 329.052 45.622 327.83 43.298C326.504 40.8303 323.767 39.6498 321.296 38.6428C315.476 36.5292 309.271 35.8578 303.173 35.0131C307.228 33.8991 311.383 33.0691 315.454 31.9551Z" fill="#00246B"/>
<path d="M254.558 43.8218C264.301 41.7155 274.705 42.3426 283.972 46.1088C293.829 50.0447 302.597 57.1751 307.653 66.5778C300.765 59.2334 291.96 53.6191 282.243 50.8636C274.221 48.5987 265.594 48.3036 257.509 50.4321C244.586 53.6155 233.454 63.1251 228.128 75.2869C226.2 79.6729 224.83 84.3096 224.08 89.0386C222.385 88.8579 220.701 88.6144 219.006 88.4521C218.976 80.6504 221.022 72.8745 224.749 66.0281C230.932 54.8401 242.159 46.747 254.558 43.8218Z" fill="#004EEB"/>
<path d="M58.4307 52.2728C72.3139 49.3808 87.6228 52.4351 98.773 61.3693C103.899 65.3494 108.39 70.2776 111.445 76.0247C107.412 71.6498 102.81 67.7508 97.6502 64.7555C91.1315 60.8491 83.7042 58.5031 76.1476 57.7912C61.8544 56.3452 46.9444 62.2472 37.8551 73.4204C28.2562 84.6896 24.825 100.739 28.5775 115.008C29.3531 118.412 30.6864 121.655 32.0825 124.849C27.2257 118.689 23.8168 111.334 22.5869 103.572C21.5528 96.5121 22.0255 89.1862 24.3745 82.4247C26.6532 75.7923 30.5239 69.728 35.4286 64.7223C41.7221 58.5252 49.7957 54.154 58.4307 52.2728Z" fill="#004EEB"/>
<path d="M252.124 62.0885C257.771 59.2629 264.131 57.7653 270.458 57.9793C278.088 58.2301 285.582 60.8454 291.801 65.2498C293.216 66.2568 294.509 67.4372 295.587 68.7984C286.996 63.6009 276.714 61.1627 266.705 62.0332C257.612 62.7304 248.804 66.4892 242.082 72.6531C240.276 74.1434 238.898 76.0431 237.258 77.692C240.375 71.0891 245.664 65.5154 252.124 62.0885Z" fill="#00246B"/>
<path d="M53.5149 71.7494C59.3467 68.3668 66.0612 66.4376 72.8236 66.5298C82.7329 66.6626 92.8895 70.5248 99.46 78.1236C86.6552 69.4329 69.2559 67.9684 55.2064 74.4754C49.744 76.9838 44.9685 80.7832 40.928 85.195C43.7903 79.6766 48.1263 74.8923 53.5149 71.7494Z" fill="#00246B"/>
<path d="M131.448 96.7334C133.413 94.332 137.062 94.2398 139.728 95.3944C141.261 96.2908 142.262 97.8327 143.451 99.1127C148.814 105.288 154.232 111.415 159.565 117.612C162.546 121.076 165.67 124.421 168.533 127.985C165.316 127.955 162.103 127.999 158.886 127.955C158.058 128.066 157.464 127.446 156.91 126.941C155.348 125.432 153.848 123.857 152.411 122.23C143.496 122.175 134.58 122.3 125.664 122.263C123.954 122.337 122.226 122.175 120.538 122.485C118.913 124.148 117.406 125.941 115.685 127.512C115.201 128.018 114.455 127.933 113.823 127.955C110.776 127.948 107.729 127.944 104.682 127.918C113.639 117.553 122.551 107.147 131.448 96.7334ZM126.772 114.635C129.601 114.543 132.434 114.624 135.263 114.605C138.96 114.746 142.657 114.469 146.354 114.646C142.953 111.09 139.813 107.291 136.452 103.702C133.147 107.276 130.273 111.252 126.772 114.635Z" fill="#00246B"/>
<path d="M49.8548 96.8293C51.8861 95.3501 54.4715 94.9074 56.9386 94.948C70.2789 95.0218 83.6229 94.9628 96.967 94.9775C96.9596 97.6297 96.9596 100.282 96.9891 102.934C84.007 102.934 71.0213 102.967 58.0392 102.927C57.2562 102.949 56.4031 102.953 55.7456 103.447C54.9183 104.074 54.6524 105.166 54.6487 106.158C54.549 109.349 54.6561 112.543 54.597 115.734C54.6118 116.83 54.4825 118.058 55.1621 119.006C55.6348 119.692 56.5176 119.914 57.3079 119.954C70.519 120.076 83.73 119.921 96.9374 120.072C96.9374 122.699 96.9485 125.325 96.978 127.955C83.3866 127.918 69.7951 127.944 56.2036 127.94C53.2453 127.951 50.1983 126.852 48.2666 124.554C46.6564 122.617 46.3166 119.991 46.3498 117.556C46.3867 113.141 46.3166 108.722 46.3757 104.306C46.3941 101.488 47.4467 98.4745 49.8548 96.8293Z" fill="#00246B"/>
<path d="M175.82 94.9665C189.618 94.9849 203.416 94.9923 217.215 94.9812C220.926 94.9554 225.122 96.3498 226.902 99.8541C228.479 103.089 228.346 106.885 227.833 110.36C227.227 114.244 223.659 117.184 219.796 117.446C223.515 120.847 227.035 124.462 230.677 127.951C227.423 127.992 224.165 127.974 220.912 127.962C219.615 128.066 218.662 127.066 217.746 126.314C214.88 123.768 212.214 121.009 209.503 118.302C209.071 117.686 208.277 117.778 207.623 117.763C199.778 117.748 191.934 117.748 184.089 117.77C184.093 121.16 184.023 124.55 184.096 127.94C181.326 127.926 178.556 127.966 175.786 127.955C175.834 116.959 175.786 105.963 175.82 94.9665ZM184.045 102.997C184.082 105.288 184.078 107.578 184.085 109.873C194.648 109.899 205.215 109.84 215.778 109.865C217.137 109.858 218.954 109.736 219.552 108.279C219.903 107.132 219.866 105.878 219.66 104.708C219.279 103.388 217.783 102.824 216.52 102.905C205.695 102.964 194.87 102.901 184.045 102.997Z" fill="#004EEB"/>
<path d="M245.206 97.1761C247.193 95.5752 249.805 94.9591 252.32 94.985C266.003 94.996 279.691 94.985 293.379 95.0145C293.367 97.5782 293.327 100.142 293.401 102.706C291.787 103.023 290.147 102.717 288.522 102.783C276.452 102.923 264.378 102.805 252.309 102.875C250.831 102.824 249.779 104.41 250.022 105.789C250.111 107.088 251.455 107.929 252.682 107.848C263.027 107.881 273.372 107.84 283.717 107.826C286.982 107.803 290.645 108.368 292.928 110.935C295.059 113.307 295.295 116.73 294.956 119.755C294.642 122.562 292.836 125.093 290.346 126.406C287.776 127.841 284.751 128.022 281.87 127.944C268.825 127.926 255.784 127.959 242.739 127.94C242.691 125.369 242.843 122.795 242.669 120.227C248.224 119.958 253.797 120.194 259.359 120.131C267.485 120.113 275.614 120.135 283.743 120.179C285.094 120.334 286.716 119.486 286.616 117.959C286.834 116.69 285.803 115.38 284.492 115.432C273.649 115.41 262.805 115.421 251.961 115.506C248.944 115.491 245.768 114.51 243.718 112.204C241.89 109.884 241.554 106.756 241.749 103.904C241.912 101.315 243.109 98.7512 245.206 97.1761Z" fill="#004EEB"/>
</svg>
